<svg width="97" height="96" fill="none" xmlns="http://www.w3.org/2000/svg"><path d="M42.224 9.91h10.561a2.083 2.083 0 0 0 0-4.16H42.224a2.083 2.083 0 0 0 0 4.16Z" fill="#DC3635"/><path d="M86.21 29.89h8a2.113 2.113 0 0 0 2.077-2.077V19.82a2.118 2.118 0 0 0-2.077-2.083h-8a2.123 2.123 0 0 0-2.078 2.083v2.077h-3.997V8.147A8.198 8.198 0 0 0 71.988 0H24.31a8.193 8.193 0 0 0-8.147 8.147v13.75H12.16v-2.078a2.118 2.118 0 0 0-2.078-2.083H2.078A2.118 2.118 0 0 0 0 19.819v7.994a2.113 2.113 0 0 0 2.078 2.078h8a2.113 2.113 0 0 0 2.077-2.078v-2.077h4.002v42.066h-4.002v-2.083a2.118 2.118 0 0 0-2.078-2.077h-8A2.119 2.119 0 0 0 0 65.719v8a2.113 2.113 0 0 0 2.078 2.078h8a2.113 2.113 0 0 0 2.077-2.078v-2.073h4.002v15.832a8.188 8.188 0 0 0 8.148 8.147h47.667a8.193 8.193 0 0 0 8.148-8.147V71.646h3.997v2.078a2.118 2.118 0 0 0 2.078 2.078h8a2.113 2.113 0 0 0 2.077-2.078v-8a2.118 2.118 0 0 0-2.078-2.077H86.21a2.119 2.119 0 0 0-2.078 2.077v2.083h-3.997V25.899h3.997v1.92a2.119 2.119 0 0 0 2.078 2.072ZM8.158 25.894H4.16v-3.997h3.998v3.997Zm0 45.906H4.16v-3.997h3.998V71.8Zm79.972-3.997h4.002V71.8H88.13v-3.997ZM20.155 7.995a4.237 4.237 0 0 1 4.155-4.16h47.667a4.237 4.237 0 0 1 4.16 4.16v13.748h-4.002V15.67a2.118 2.118 0 0 0-2.077-2.083H26.23a2.123 2.123 0 0 0-2.078 2.082v6.075h-3.997V7.995ZM64.14 25.909h3.997v41.908H64.14a2.078 2.078 0 0 0 0 4.155h3.997v3.84H28.149v-3.998h4.003a2.119 2.119 0 0 0 2.077-2.077 1.986 1.986 0 0 0-2.077-1.92h-4.003V25.91h4.003a2.083 2.083 0 0 0 0-4.16h-4.003v-4h39.989v3.992H64.14a2.123 2.123 0 0 0-2.083 2.083c.163 1.12.962 2.078 2.083 2.078v.005Zm-43.986 0h4.012v41.908H20.17l-.015-41.908ZM76.138 87.65a4.232 4.232 0 0 1-4.16 4.155H24.31a4.231 4.231 0 0 1-4.155-4.155V71.814h4.012v6.08a2.118 2.118 0 0 0 2.078 2.078H70.23a2.118 2.118 0 0 0 2.083-2.078v-6.08h3.839l-.015 15.837Zm0-19.86h-4.003V25.884h4.003v41.909ZM88.13 21.887h4.002v3.997H88.13v-3.997Z" fill="#DC3635"/><path d="M48.146 23.826A17.995 17.995 0 1 0 66.218 41.74a18.052 18.052 0 0 0-18.072-17.914Zm0 31.989A14.08 14.08 0 1 1 62.221 41.74a14.095 14.095 0 0 1-14.075 14.075Z" fill="#DC3635"/><path d="M53.742 36.46a2.037 2.037 0 0 0 0 2.882l1.6 1.599-1.6 1.599a2.037 2.037 0 0 0 0 2.877c.394.37.902.597 1.442.641a1.956 1.956 0 0 0 1.436-.641l3.055-3.056a2.037 2.037 0 0 0 0-2.877L56.62 36.43a2.037 2.037 0 0 0-2.878.03Zm-11.197 0a2.037 2.037 0 0 0-2.877 0l-3.056 3.055a2.037 2.037 0 0 0 0 2.877l3.056 3.055a2.37 2.37 0 0 0 1.44.642 1.956 1.956 0 0 0 1.437-.642 2.037 2.037 0 0 0 0-2.877l-1.574-1.63 1.6-1.598c.773-.963.773-2.083-.026-2.882Zm8.157-4.64a1.831 1.831 0 0 0-2.398 1.442l-4.16 14.075a1.833 1.833 0 0 0 1.44 2.398h.48a2.24 2.24 0 0 0 1.92-1.436l3.996-14.08a1.861 1.861 0 0 0-1.278-2.398Zm3.508 31.995a2.114 2.114 0 0 0-2.077 2.077v1.92a2.083 2.083 0 0 0 4.16 0v-2.083a2.373 2.373 0 0 0-2.082-1.914Zm-6.064 0a2.119 2.119 0 0 0-2.083 2.077v1.92a2.083 2.083 0 0 0 4.16 0v-2.083a2.088 2.088 0 0 0-2.077-1.914Zm-5.922 0a2.119 2.119 0 0 0-2.078 2.077v1.92a2.083 2.083 0 0 0 4.16 0v-2.083a2.373 2.373 0 0 0-2.082-1.914Zm5.922 17.751a3.682 3.682 0 1 1 0 7.364 3.682 3.682 0 0 1 0-7.364Z" fill="#DC3635"/></svg>