<svg width="99" height="92" fill="none" xmlns="http://www.w3.org/2000/svg"><path d="M34.025 28.15a2.123 2.123 0 0 0 2.077 2.082h3.519l-5.439 23.51a2.26 2.26 0 0 0 .163 1.442l12.797 22.069a2.088 2.088 0 0 0 3.519 0l13.275-22.07a1.528 1.528 0 0 0 .158-1.44L58.655 30.39h3.519a2.124 2.124 0 0 0 2.083-2.078v-8a2.118 2.118 0 0 0-2.083-2.077h-2.078V2.078A2.113 2.113 0 0 0 58.02 0H40.105a2.118 2.118 0 0 0-2.083 2.078v15.994h-2.078a2.119 2.119 0 0 0-2.077 2.083v7.994h.158Zm14.874 21.595c-1.436 0-1.436-2.398 0-2.398s1.44 2.398 0 2.398Zm11.04 3.997-8.8 14.875V53.264c4.96-2.24 3.198-9.92-2.077-9.92-5.602 0-7.038 8-1.92 10.078V69.1l-8.82-15.215 5.439-23.673h10.877l5.3 23.53ZM42.024 4.16h2.078v7.995c0 2.546 3.997 2.546 3.997 0V4.16h8v13.912H42.182V4.16h-.158Zm-4.002 17.914h22.074v3.998H38.2v-3.998h-.178Z" fill="#DC3635"/><path d="M97.524 40.467a2.037 2.037 0 0 0 0-2.877l-7.038-7.037a2.037 2.037 0 0 0-2.877 0l-7.022 7.037a2.037 2.037 0 0 0 0 2.877l5.74 5.78-33.1 37.906H45.08L11.792 46.247l5.76-5.76a2.037 2.037 0 0 0 0-2.876l-7.038-7.038a2.037 2.037 0 0 0-2.882 0L.595 37.59a2.037 2.037 0 0 0 0 2.877L39.62 83.975H15.63c-2.24-6.238-11.675-4.482-11.675 2.077S13.39 94.2 15.632 88.13h66.707c2.24 6.238 11.676 4.48 11.676-2.078 0-6.559-9.436-8.147-11.676-2.078h-24l39.185-43.507Zm-8.479-5.601 4.323 4.318-4.323 4.318-4.318-4.318 4.318-4.318Zm-79.946 0 4.318 4.318-4.318 4.318-4.318-4.318 4.318-4.318Zm.957 53.259c-2.546 0-2.546-3.998 0-3.998s2.536 4.003-.025 4.003l.025-.005Zm78.057-3.998c2.546 0 2.546 3.998 0 3.998s-2.586-3.993-.025-3.993l.025-.005ZM68.091 8.158h-3.997v3.997h3.997V8.158Zm5.917 0h-3.997v3.997h3.997V8.158Zm6.08 0h-3.997v3.997h3.997V8.158Zm-58.06 0H18.03v3.997h3.998V8.158Zm6.075 0h-3.998v3.997h3.998V8.158Zm5.922 0h-3.997v3.997h3.997V8.158Z" fill="#DC3635"/></svg>