<svg width="97" height="97" fill="none" xmlns="http://www.w3.org/2000/svg"><path d="M94.052 0H2.082A2.119 2.119 0 0 0 0 2.078v91.974a2.118 2.118 0 0 0 2.083 2.077h91.969a2.118 2.118 0 0 0 2.082-2.077V2.078C95.972.958 95.014 0 94.053 0ZM4.002 19.992h87.972v6.08H18.062a2.083 2.083 0 0 0 0 4.16h73.897v51.98H4.002v-62.22ZM91.974 8H51.986a2.113 2.113 0 0 0-2.078 2.077 1.982 1.982 0 0 0 2.078 1.92h39.988v3.997h-59.98V3.997h59.98V8ZM27.991 3.997v11.997H4.003V3.997h23.99ZM4.003 91.96v-6.065h87.972v6.065H4.002Z" fill="#DC3635"/><path d="M11.997 29.911a1.741 1.741 0 0 0 1.441-.641c.371-.392.597-.899.642-1.436a1.742 1.742 0 0 0-.642-1.442 2.373 2.373 0 0 0-1.44-.641 1.732 1.732 0 0 0-1.437.641 2.373 2.373 0 0 0-.642 1.442 2.2 2.2 0 0 0 2.078 2.077Zm32.63-18.556c.392.377.9.609 1.441.657a1.747 1.747 0 0 0 1.442-.641c.368-.395.592-.903.636-1.441a1.73 1.73 0 0 0-.636-1.436 2.388 2.388 0 0 0-1.441-.642 1.747 1.747 0 0 0-1.442.642c-.37.391-.597.898-.641 1.436a1.563 1.563 0 0 0 .641 1.425ZM34.072 59.023a10.077 10.077 0 1 0-14.396 0c-6.874 2.546-11.997 9.115-11.997 16.952a2.123 2.123 0 0 0 2.083 2.082h34.224a2.123 2.123 0 0 0 2.083-2.082v-.158A18.392 18.392 0 0 0 34.07 59.023Zm-7.038-12.96a6.08 6.08 0 1 1 0 12.159 6.08 6.08 0 0 1 0-12.159ZM12.16 74.07a14.116 14.116 0 0 1 13.912-11.992h1.92A14.12 14.12 0 0 1 41.907 74.07H12.16Zm73.897-30.084H51.986a2.113 2.113 0 0 0-2.078 2.078V58.06a2.118 2.118 0 0 0 2.078 2.082h34.071a2.118 2.118 0 0 0 2.078-2.082V46.063c-.163-1.12-1.12-2.077-2.078-2.077Zm-2.083 11.997H54.068v-8h29.906v8Zm2.083 6.08H51.986a2.114 2.114 0 0 0-2.078 2.078v11.834a2.118 2.118 0 0 0 2.078 2.082h34.071a2.118 2.118 0 0 0 2.078-2.082V63.978a2.21 2.21 0 0 0-2.078-1.915Zm-2.083 11.992H54.068V66.06h29.906v7.995ZM11.997 7.995H8v3.997h3.997V7.995Z" fill="#DC3635"/><path d="M59.98 67.98h-3.997v3.997h3.998V67.98Zm6.08 0h-3.997v3.997h3.997V67.98Zm5.918 0H67.98v3.997h3.998V67.98ZM59.98 50.066h-3.997v3.997h3.998v-3.997Zm6.08 0h-3.997v3.997h3.997v-3.997Zm5.918 0H67.98v3.997h3.998v-3.997ZM18.077 7.995H14.08v3.997h3.997V7.995Zm5.917 0h-3.997v3.997h3.997V7.995Z" fill="#DC3635"/></svg>