<svg width="92" height="88" fill="none" xmlns="http://www.w3.org/2000/svg"><path d="M68.744 83.862h-8.117l-4.456-15.118h26.897a6.721 6.721 0 0 0 6.681-6.681V6.681A6.721 6.721 0 0 0 83.069 0H6.685A6.727 6.727 0 0 0 0 6.68v55.383a6.727 6.727 0 0 0 6.686 6.68h24.982l-4.456 15.12h-8.116c-2.547 0-2.547 3.976 0 3.976h49.648c2.546 0 2.546-3.977 0-3.977ZM6.686 3.977h76.382a2.79 2.79 0 0 1 2.704 2.704v7.638H3.977V6.681a2.684 2.684 0 0 1 2.709-2.704ZM3.977 62.063v-6.05h11.3c2.546 0 2.546-3.976 0-3.976h-11.3V18.3H85.93v33.893H23.872c-2.546 0-2.546 3.977 0 3.977H85.93v6.05a2.785 2.785 0 0 1-2.704 2.704H6.686a2.933 2.933 0 0 1-2.709-2.862Zm27.375 21.8 4.45-15.12H51.88l4.455 15.12H31.352Z" fill="#DC3635"/><path d="M21.8 79.885a2.109 2.109 0 0 0-2.068-2.072H1.91c-2.547 0-2.547 3.982 0 3.982h17.985c1.11.158 1.904-.8 1.904-1.91ZM1.91 75.903h7.959c2.546 0 2.546-3.977 0-3.977h-7.96c-2.546 0-2.546 3.977 0 3.977Zm87.523 2.073H71.611c-2.546 0-2.546 3.977 0 3.977h17.822c2.546 0 2.546-3.977 0-3.977Zm-7.959-6.049c-2.546 0-2.546 3.976 0 3.976h7.96c2.545 0 2.545-3.977 0-3.977h-7.96ZM79.565 46.14a2.108 2.108 0 0 0-2.068-2.073H11.936c-2.546 0-2.546 3.983 0 3.983h65.561a1.977 1.977 0 0 0 2.068-1.91Zm-59.67-3.972h49.648c2.546 0 2.546-3.977 0-3.977H19.895c-2.551 0-2.551 3.977 0 3.977ZM51.72 12.252h27.844c2.547 0 2.547-3.977 0-3.977H51.721c-2.546 0-2.546 3.977 0 3.977ZM27.691 34.214l1.747-7.959h.163l1.91 7.96h2.703l3.02-11.937h-2.226l-1.751 7.48-.158.474-2.067-7.954h-2.547l-1.91 7.954-.157-.636-1.752-7.318H21.8l3.025 11.936h2.867Zm15.592 0 1.91-7.959 1.91 7.96h2.866l2.862-11.937h-2.23l-1.747 7.48-.163.474-1.91-7.954h-2.703l-1.91 7.954-.158-.636-1.593-7.318h-2.862l3.024 11.936h2.704Zm15.755 0 1.752-7.959h.158l1.91 7.96h2.703l3.025-11.937h-2.388l-1.752 7.48v.474l-2.067-7.954h-2.546l-1.91 7.954h-.158v-.636l-1.752-7.318h-2.861l3.02 11.936h2.866ZM43.92 62.22c2.709 0 2.709-4.14 0-4.14-2.71 0-2.704 4.14 0 4.14ZM11.93 8.275H7.955v3.977h3.977V8.275Zm5.893 0h-3.977v3.977h3.977V8.275Zm6.044 0H19.89v3.977h3.977V8.275Z" fill="#DC3635"/></svg>