<svg xmlns="http://www.w3.org/2000/svg" viewBox="0 0 500 500" style="enable-background:new 0 0 500 500" xml:space="preserve"><path d="M40 0h420c22.1 0 40 17.9 40 40v420c0 22.1-17.9 40-40 40H40c-22.1 0-40-17.9-40-40V40C0 17.9 17.9 0 40 0z" style="fill:#262626"/><path d="m345.4 460-85.8-123c-3.6.4-9 .6-16.2.6h-94.8V460h-78V40h172.8c36.4 0 68.1 6 95.1 18s47.7 29.2 62.1 51.6c14.4 22.4 21.6 49 21.6 79.8 0 31.6-7.7 58.8-23.1 81.6-15.4 22.8-37.5 39.8-66.3 51l96.6 138h-84zm-28.2-332.4c-17.6-14.4-43.4-21.6-77.4-21.6h-91.2v167.4h91.2c34 0 59.8-7.3 77.4-21.9 17.6-14.6 26.4-35.3 26.4-62.1 0-26.8-8.8-47.4-26.4-61.8z" style="fill:#dc3635"/></svg>