<?xml version="1.0" encoding="utf-8"?>
<!-- Generator: Adobe Illustrator 28.1.0, SVG Export Plug-In . SVG Version: 6.00 Build 0)  -->
<svg version="1.1" id="Layer_1" xmlns="http://www.w3.org/2000/svg" xmlns:xlink="http://www.w3.org/1999/xlink" x="0px" y="0px"
	 viewBox="0 0 500 500" style="enable-background:new 0 0 500 500;" xml:space="preserve">
<style type="text/css">
	.st0{fill:#262626;}
	.st1{fill:#DC3635;}
</style>
<path class="st0" d="M40,0h420c22.1,0,40,17.9,40,40v420c0,22.1-17.9,40-40,40H40c-22.1,0-40-17.9-40-40V40C0,17.9,17.9,0,40,0z"/>
<g>
	<path class="st1" d="M345.4,460l-85.8-123c-3.6,0.4-9,0.6-16.2,0.6h-94.8V460h-78V40h172.8c36.4,0,68.1,6,95.1,18
		s47.7,29.2,62.1,51.6c14.4,22.4,21.6,49,21.6,79.8c0,31.6-7.7,58.8-23.1,81.6c-15.4,22.8-37.5,39.8-66.3,51l96.6,138H345.4z
		 M317.2,127.6c-17.6-14.4-43.4-21.6-77.4-21.6h-91.2v167.4h91.2c34,0,59.8-7.3,77.4-21.9c17.6-14.6,26.4-35.3,26.4-62.1
		C343.6,162.6,334.8,142,317.2,127.6z"/>
</g>
</svg>
