<svg width="172" height="31" fill="none" xmlns="http://www.w3.org/2000/svg"><path d="M.8 30V2h12.8c2.56 0 4.76.413 6.6 1.24 1.867.827 3.307 2.027 4.32 3.6 1.013 1.547 1.52 3.387 1.52 5.52 0 2.107-.507 3.933-1.52 5.48-1.013 1.52-2.453 2.693-4.32 3.52-1.84.8-4.04 1.2-6.6 1.2H5.2l3.52-3.32V30H.8Zm17.32 0-6.96-10.2h8.44l7 10.2h-8.48Zm-9.4-9.92L5.2 16.44h7.92c1.653 0 2.88-.36 3.68-1.08.827-.72 1.24-1.72 1.24-3 0-1.307-.413-2.32-1.24-3.04-.8-.72-2.027-1.08-3.68-1.08H5.2L8.72 4.6v15.48Z" fill="#DC3635"/><path d="M44.93 30v-4.64l-.12-.76v-7.76c0-1.787-.507-3.16-1.52-4.12-.987-.96-2.467-1.44-4.44-1.44-1.36 0-2.654.227-3.88.68-1.227.453-2.267 1.053-3.12 1.8l-1.28-2.12c1.066-.907 2.346-1.6 3.84-2.08a14.59 14.59 0 0 1 4.72-.76c2.72 0 4.813.68 6.28 2.04 1.493 1.333 2.24 3.373 2.24 6.12V30h-2.72Zm-7.24.2c-1.574 0-2.947-.253-4.12-.76-1.147-.533-2.027-1.253-2.64-2.16-.614-.933-.92-2-.92-3.2 0-1.093.253-2.08.76-2.96.533-.907 1.386-1.627 2.56-2.16 1.2-.56 2.8-.84 4.8-.84h7.24v2.12h-7.16c-2.027 0-3.44.36-4.24 1.08-.774.72-1.16 1.613-1.16 2.68 0 1.2.466 2.16 1.4 2.88.933.72 2.24 1.08 3.92 1.08 1.6 0 2.973-.36 4.12-1.08 1.173-.747 2.026-1.813 2.56-3.2l.64 1.96c-.534 1.387-1.467 2.493-2.8 3.32-1.307.827-2.96 1.24-4.96 1.24ZM81.802 8.8c1.707 0 3.187.333 4.44 1 1.28.64 2.267 1.627 2.96 2.96.72 1.333 1.08 3.013 1.08 5.04V30h-2.84V18.08c0-2.213-.533-3.88-1.6-5-1.04-1.147-2.52-1.72-4.44-1.72-1.44 0-2.693.307-3.76.92-1.04.587-1.853 1.453-2.44 2.6-.56 1.12-.84 2.48-.84 4.08V30h-2.84V18.08c0-2.213-.533-3.88-1.6-5-1.067-1.147-2.56-1.72-4.48-1.72-1.413 0-2.653.307-3.72.92-1.066.587-1.893 1.453-2.48 2.6-.56 1.12-.84 2.48-.84 4.08V30h-2.84V9h2.72v5.68l-.44-1a7.426 7.426 0 0 1 3.08-3.56c1.44-.88 3.133-1.32 5.08-1.32 2.053 0 3.8.52 5.24 1.56 1.44 1.013 2.374 2.547 2.8 4.6l-1.12-.44c.614-1.707 1.694-3.08 3.24-4.12 1.574-1.067 3.454-1.6 5.64-1.6ZM98.185 30V9h2.84v21h-2.84Zm1.44-25.64c-.587 0-1.08-.2-1.48-.6-.4-.4-.6-.88-.6-1.44 0-.56.2-1.027.6-1.4.4-.4.893-.6 1.48-.6s1.08.187 1.48.56c.4.373.6.84.6 1.4 0 .587-.2 1.08-.6 1.48-.373.4-.867.6-1.48.6Zm15.142 25.84c-1.733 0-3.373-.24-4.92-.72-1.546-.507-2.76-1.133-3.64-1.88l1.28-2.24c.854.64 1.947 1.2 3.28 1.68 1.334.453 2.734.68 4.2.68 2 0 3.44-.307 4.32-.92.88-.64 1.32-1.48 1.32-2.52 0-.773-.253-1.373-.76-1.8-.48-.453-1.12-.787-1.92-1-.8-.24-1.693-.44-2.68-.6a57.977 57.977 0 0 1-2.96-.56c-.96-.213-1.84-.52-2.64-.92a5.56 5.56 0 0 1-1.96-1.72c-.48-.72-.72-1.68-.72-2.88 0-1.147.32-2.173.96-3.08.64-.907 1.574-1.613 2.8-2.12 1.254-.533 2.774-.8 4.56-.8 1.36 0 2.72.187 4.08.56 1.36.347 2.48.813 3.36 1.4l-1.24 2.28a9.222 9.222 0 0 0-3-1.36 12.017 12.017 0 0 0-3.2-.44c-1.893 0-3.293.333-4.2 1-.88.64-1.32 1.467-1.32 2.48 0 .8.24 1.427.72 1.88.507.453 1.16.813 1.96 1.08.827.24 1.72.44 2.68.6.987.16 1.96.36 2.92.6.987.213 1.88.52 2.68.92.827.373 1.48.92 1.96 1.64.507.693.76 1.613.76 2.76 0 1.227-.346 2.293-1.04 3.2-.666.88-1.653 1.573-2.96 2.08-1.28.48-2.84.72-4.68.72Zm24.811-21.4c1.707 0 3.2.333 4.48 1 1.307.64 2.32 1.627 3.04 2.96.747 1.333 1.12 3.013 1.12 5.04V30h-2.84V18.08c0-2.213-.56-3.88-1.68-5-1.093-1.147-2.64-1.72-4.64-1.72-1.493 0-2.8.307-3.92.92-1.093.587-1.946 1.453-2.56 2.6-.586 1.12-.88 2.48-.88 4.08V30h-2.84V.32h2.84v14.44l-.56-1.08c.667-1.52 1.734-2.707 3.2-3.56 1.467-.88 3.214-1.32 5.24-1.32ZM169.25 30v-4.64l-.12-.76v-7.76c0-1.787-.507-3.16-1.52-4.12-.987-.96-2.467-1.44-4.44-1.44a11.1 11.1 0 0 0-3.88.68c-1.227.453-2.267 1.053-3.12 1.8l-1.28-2.12c1.066-.907 2.346-1.6 3.84-2.08a14.586 14.586 0 0 1 4.72-.76c2.72 0 4.813.68 6.28 2.04 1.493 1.333 2.24 3.373 2.24 6.12V30h-2.72Zm-7.24.2c-1.574 0-2.947-.253-4.12-.76-1.147-.533-2.027-1.253-2.64-2.16-.614-.933-.92-2-.92-3.2 0-1.093.253-2.08.76-2.96.533-.907 1.386-1.627 2.56-2.16 1.2-.56 2.8-.84 4.8-.84h7.24v2.12h-7.16c-2.027 0-3.44.36-4.24 1.08-.774.72-1.16 1.613-1.16 2.68 0 1.2.466 2.16 1.4 2.88.933.72 2.24 1.08 3.92 1.08 1.6 0 2.973-.36 4.12-1.08 1.173-.747 2.026-1.813 2.56-3.2l.64 1.96c-.534 1.387-1.467 2.493-2.8 3.32-1.307.827-2.96 1.24-4.96 1.24Z" fill="#493C3B"/></svg>