<svg id="Layer_1" data-name="Layer 1" xmlns="http://www.w3.org/2000/svg" viewBox="0 0 100 100"><defs><style>.cls-1{fill:#fff;}.cls-2{fill:#e5122e;}</style></defs><rect class="cls-1" x="2" y="2" width="96" height="96" rx="18"/><path class="cls-2" d="M80,4A16,16,0,0,1,96,20V80A16,16,0,0,1,80,96H20A16,16,0,0,1,4,80V20A16,16,0,0,1,20,4H80m0-4H20A20.06,20.06,0,0,0,0,20V80a20.06,20.06,0,0,0,20,20H80a20.06,20.06,0,0,0,20-20V20A20.06,20.06,0,0,0,80,0Z"/><path class="cls-2" d="M14.44,16.67A6.67,6.67,0,0,1,21.11,10H78.89a6.67,6.67,0,0,1,6.67,6.67v9.52a6.67,6.67,0,0,1-6.67,6.67H21.11a6.67,6.67,0,0,1-6.67-6.67Zm0,28.57a6.67,6.67,0,0,1,6.67-6.67H78.89a6.67,6.67,0,0,1,6.67,6.67v9.52a6.67,6.67,0,0,1-6.67,6.67H21.11a6.67,6.67,0,0,1-6.67-6.67Zm6.67,21.9a6.67,6.67,0,0,0-6.67,6.67v9.52A6.67,6.67,0,0,0,21.11,90H47.78a6.66,6.66,0,0,0,6.66-6.67V73.81a6.67,6.67,0,0,0-6.66-6.67Z"/></svg>