<svg id="Layer_1" data-name="Layer 1" xmlns="http://www.w3.org/2000/svg" viewBox="0 0 100 100"><defs><style>.cls-1{fill:#fff;}</style></defs><rect class="cls-1" x="2" y="2" width="96" height="96" rx="18"/><path d="M80,4A16,16,0,0,1,96,20V80A16,16,0,0,1,80,96H20A16,16,0,0,1,4,80V20A16,16,0,0,1,20,4H80m0-4H20A20.06,20.06,0,0,0,0,20V80a20.06,20.06,0,0,0,20,20H80a20.06,20.06,0,0,0,20-20V20A20.06,20.06,0,0,0,80,0Z"/><path d="M10,56.92c.09-5.16,2.23-14.52,12.83-14.52,6.41,0,11.49.54,17.1.54,4.81,0,8.82-1.79,9.45-10.61h3c.53,8.82,3.65,10.61,9.35,10.61s9.26-.54,15-.54c10.6,0,13,9,13.27,14.52L87.42,57c-1.25-6.95-5.17-8.19-9.62-8.19-5.71,0-9,.62-14.53.62a12.39,12.39,0,0,1-12.2-10.07h-.36c-1.24,5.26-5.25,10.07-12.29,10.07-5.79,0-10.51-.62-16-.62-4.81,0-8.64,1.51-9.89,8.19Z"/><path d="M16,59.09c0-.71,0-1.3-.06-1.86H17l.06,1.11h0a2.38,2.38,0,0,1,2.17-1.27,2,2,0,0,1,1.94,1.38h0a3.15,3.15,0,0,1,.77-.9,2.36,2.36,0,0,1,1.52-.48c.91,0,2.26.6,2.26,3v4H24.57v-3.9c0-1.32-.48-2.12-1.49-2.12a1.62,1.62,0,0,0-1.48,1.14,2,2,0,0,0-.1.63v4.25H20.28V60c0-1.1-.49-1.9-1.44-1.9a1.72,1.72,0,0,0-1.55,1.26,1.7,1.7,0,0,0-.1.61v4.15H16Z"/><path d="M33.59,62.23c0,.71,0,1.34,0,1.88h-1.1L32.46,63h0a2.62,2.62,0,0,1-2.28,1.28c-1.08,0-2.37-.6-2.37-3v-4H29V61c0,1.31.4,2.19,1.53,2.19a1.78,1.78,0,0,0,1.77-1.78V57.23h1.25Z"/><path d="M35.49,62.83a3.32,3.32,0,0,0,1.65.5c.91,0,1.34-.46,1.34-1s-.36-.92-1.28-1.26c-1.24-.44-1.82-1.13-1.82-1.95a2.12,2.12,0,0,1,2.37-2,3.45,3.45,0,0,1,1.7.43l-.32.91a2.65,2.65,0,0,0-1.4-.4c-.74,0-1.16.43-1.16.94s.42.82,1.31,1.16c1.2.46,1.81,1.06,1.81,2.08,0,1.21-.94,2.06-2.58,2.06a3.85,3.85,0,0,1-1.93-.47Z"/><path d="M42.8,55.25v2h1.8v1H42.8v3.71c0,.85.25,1.34.94,1.34a2.91,2.91,0,0,0,.73-.09l.06.94a3.11,3.11,0,0,1-1.11.17,1.75,1.75,0,0,1-1.36-.52,2.6,2.6,0,0,1-.48-1.8V58.18H40.51v-1h1.07V55.58Z"/><path d="M49.82,64.11l-.1-.87h0a2.55,2.55,0,0,1-2.1,1,2,2,0,0,1-2.11-2c0-1.67,1.48-2.58,4.14-2.56v-.14A1.42,1.42,0,0,0,48,58a3.35,3.35,0,0,0-1.79.52L46,57.68a4.29,4.29,0,0,1,2.26-.61c2.11,0,2.62,1.44,2.62,2.82v2.57A10.29,10.29,0,0,0,51,64.11Zm-.19-3.51c-1.36,0-2.92.21-2.92,1.55a1.11,1.11,0,0,0,1.19,1.19,1.72,1.72,0,0,0,1.66-1.15,1.4,1.4,0,0,0,.07-.4Z"/><path d="M57.77,63.85a4.66,4.66,0,0,1-2,.4,3.27,3.27,0,0,1-3.43-3.51,3.5,3.5,0,0,1,3.7-3.66,4.15,4.15,0,0,1,1.73.36l-.28,1a2.91,2.91,0,0,0-1.45-.33,2.6,2.6,0,0,0,0,5.18,3.61,3.61,0,0,0,1.53-.34Z"/><path d="M59.23,54h1.25v4.3h0a2.24,2.24,0,0,1,.9-.88,2.51,2.51,0,0,1,1.28-.36c.92,0,2.4.57,2.4,2.94v4.1H63.84v-4c0-1.11-.41-2-1.59-2a1.79,1.79,0,0,0-1.68,1.25,1.52,1.52,0,0,0-.09.6v4.15H59.23Z"/><path d="M67.82,60.9a2.2,2.2,0,0,0,2.36,2.38,4.53,4.53,0,0,0,1.91-.35l.21.9a5.74,5.74,0,0,1-2.29.42,3.19,3.19,0,0,1-3.38-3.47c0-2.07,1.22-3.71,3.22-3.71,2.25,0,2.85,2,2.85,3.24,0,.26,0,.46,0,.59Zm3.67-.9a1.78,1.78,0,0,0-1.74-2,2.07,2.07,0,0,0-1.92,2Z"/><path d="M73.78,63.37a.85.85,0,1,1,.84.9A.84.84,0,0,1,73.78,63.37Z"/><path d="M75.34,66.1a2,2,0,0,0,1.37-.53c.34-.39.47-.93.47-2.58V57.23h1.25v6.24a3.78,3.78,0,0,1-.82,2.83,3.22,3.22,0,0,1-2.14.78Zm3.23-10.81a.73.73,0,0,1-.78.77.75.75,0,0,1-.77-.77.77.77,0,0,1,.8-.78A.74.74,0,0,1,78.57,55.29Z"/><path d="M80.31,62.83a3.29,3.29,0,0,0,1.65.5c.91,0,1.33-.46,1.33-1S82.94,61.38,82,61c-1.23-.44-1.82-1.13-1.82-1.95a2.13,2.13,0,0,1,2.38-2,3.38,3.38,0,0,1,1.69.43l-.31.91a2.69,2.69,0,0,0-1.41-.4c-.74,0-1.15.43-1.15.94s.41.82,1.31,1.16c1.19.46,1.8,1.06,1.8,2.08,0,1.21-.94,2.06-2.57,2.06A3.85,3.85,0,0,1,80,63.78Z"/></svg>