<svg id="Layer_1" data-name="Layer 1" xmlns="http://www.w3.org/2000/svg" viewBox="0 0 100 100"><defs><style>.cls-1{fill:#fff;}.cls-2{fill:#6332f6;}</style></defs><rect class="cls-1" x="2" y="2" width="96" height="96" rx="18"/><path class="cls-2" d="M80,4A16,16,0,0,1,96,20V80A16,16,0,0,1,80,96H20A16,16,0,0,1,4,80V20A16,16,0,0,1,20,4H80m0-4H20A20.06,20.06,0,0,0,0,20V80a20.06,20.06,0,0,0,20,20H80a20.06,20.06,0,0,0,20-20V20A20.06,20.06,0,0,0,80,0Z"/><path class="cls-2" d="M50,10A40,40,0,1,0,90,50,40,40,0,0,0,50,10ZM66.28,69.69a14.28,14.28,0,0,1-3.64,5,15.83,15.83,0,0,1-5.48,3.12,20.78,20.78,0,0,1-6.76,1.08,19.59,19.59,0,0,1-6.48-1,18.91,18.91,0,0,1-5.12-2.64A18.28,18.28,0,0,1,35,71.45a22,22,0,0,1-2.56-4.28L38,63.81a16.13,16.13,0,0,0,1.88,3.24,14.6,14.6,0,0,0,2.68,2.76,12.33,12.33,0,0,0,7.76,2.64,13.29,13.29,0,0,0,3.88-.56,9.9,9.9,0,0,0,3.32-1.68,8.51,8.51,0,0,0,2.32-2.76,8,8,0,0,0,.88-3.88,7.74,7.74,0,0,0-.84-3.72,9.92,9.92,0,0,0-2.28-2.8,17.37,17.37,0,0,0-3.44-2.24q-2-1-4.32-2.12C48,51.82,46.17,50.92,44.36,50a24.88,24.88,0,0,1-5-3.36,15.8,15.8,0,0,1-3.56-4.44,12.16,12.16,0,0,1-1.36-5.88,15.76,15.76,0,0,1,1-5.56,15,15,0,0,1,3-4.92,15.36,15.36,0,0,1,5-3.52,16.91,16.91,0,0,1,7-1.36,19.15,19.15,0,0,1,5.48.76,20,20,0,0,1,8,4.6,19.64,19.64,0,0,1,2.48,2.8l-5,4.08a14.09,14.09,0,0,0-4.28-4,14.36,14.36,0,0,0-3.08-1.36,12.2,12.2,0,0,0-3.6-.52,10.41,10.41,0,0,0-4,.72A9.2,9.2,0,0,0,43.6,30a7.85,7.85,0,0,0-1.8,2.76,8.77,8.77,0,0,0-.6,3.16,6.62,6.62,0,0,0,.88,3.48,10.25,10.25,0,0,0,2.48,2.76,23.31,23.31,0,0,0,3.92,2.48q2.33,1.2,5.2,2.48a55.75,55.75,0,0,1,5.8,3,22.14,22.14,0,0,1,4.4,3.4,13.14,13.14,0,0,1,2.76,4.16,14.17,14.17,0,0,1,1,5.44A15.81,15.81,0,0,1,66.28,69.69Z"/></svg>